HIERARCHY
ROOT joint_0
{
	OFFSET 0.000000 0.000000 0.000000
	CHANNELS 6 Xposition Yposition Zposition Zrotation Yrotation Xrotation 
	JOINT joint_1
	{
		OFFSET 6.590088 -1.122192 114.019043
		CHANNELS 3 Zrotation Yrotation Xrotation
		JOINT joint_2
		{
			OFFSET -5.956055 -0.820435 104.151001
			CHANNELS 3 Zrotation Yrotation Xrotation
			JOINT joint_3
			{
				OFFSET -7.343506 -1.103027 103.942993
				CHANNELS 3 Zrotation Yrotation Xrotation
				JOINT joint_4
				{
					OFFSET 3.109131 -2.857056 147.715942
					CHANNELS 3 Zrotation Yrotation Xrotation
					JOINT joint_5
					{
						OFFSET 28.592285 -2.852295 87.703979
						CHANNELS 3 Zrotation Yrotation Xrotation
						End Site
						{
							OFFSET 0.000000 0.000000 0.000000
						}
					}
				}
				JOINT joint_6
				{
					OFFSET -0.332520 -33.687378 82.401978
					CHANNELS 3 Zrotation Yrotation Xrotation
					JOINT joint_7
					{
						OFFSET -7.397461 -168.719177 -22.750977
						CHANNELS 3 Zrotation Yrotation Xrotation
						JOINT joint_8
						{
							OFFSET 17.065918 -24.903137 -272.721069
							CHANNELS 3 Zrotation Yrotation Xrotation
							JOINT joint_9
							{
								OFFSET 33.311279 -37.031616 -278.192993
								CHANNELS 3 Zrotation Yrotation Xrotation
								End Site
								{
									OFFSET 0.000000 0.000000 0.000000
								}
							}
						}
					}
				}
				JOINT joint_10
				{
					OFFSET 3.914307 30.461670 83.552979
					CHANNELS 3 Zrotation Yrotation Xrotation
					JOINT joint_11
					{
						OFFSET 15.543701 166.845459 -30.963013
						CHANNELS 3 Zrotation Yrotation Xrotation
						JOINT joint_12
						{
							OFFSET 35.734863 35.017700 -269.786011
							CHANNELS 3 Zrotation Yrotation Xrotation
							JOINT joint_13
							{
								OFFSET 70.506592 13.977783 -273.320007
								CHANNELS 3 Zrotation Yrotation Xrotation
								End Site
								{
									OFFSET 0.000000 0.000000 0.000000
								}
							}
						}
					}
				}
			}
		}
	}
	JOINT joint_14
	{
		OFFSET -0.314697 -95.093994 -116.004028
		CHANNELS 3 Zrotation Yrotation Xrotation
		JOINT joint_15
		{
			OFFSET -22.490723 2.017883 -455.510986
			CHANNELS 3 Zrotation Yrotation Xrotation
			JOINT joint_16
			{
				OFFSET -46.427490 7.144104 -496.360985
				CHANNELS 3 Zrotation Yrotation Xrotation
				JOINT joint_17
				{
					OFFSET 209.055420 -37.122803 -85.191002
					CHANNELS 3 Zrotation Yrotation Xrotation
					End Site
					{
						OFFSET 0.000000 0.000000 0.000000
					}
				}
			}
		}
	}
	JOINT joint_18
	{
		OFFSET 5.652832 94.642578 -116.244019
		CHANNELS 3 Zrotation Yrotation Xrotation
		JOINT joint_19
		{
			OFFSET -12.379883 -7.332642 -455.843994
			CHANNELS 3 Zrotation Yrotation Xrotation
			JOINT joint_20
			{
				OFFSET -45.227051 -8.172241 -496.457985
				CHANNELS 3 Zrotation Yrotation Xrotation
				JOINT joint_21
				{
					OFFSET 210.522949 -11.530396 -88.809004
					CHANNELS 3 Zrotation Yrotation Xrotation
					End Site
					{
						OFFSET 0.000000 0.000000 0.000000
					}
				}
			}
		}
	}
}
MOTION
Frames: 13
Frame Time: 0.016667
-2231.104248 996.421143 1129.121948 2.407186 7.290917 -2.070714 2.641087 2.039870 -3.515727 2.186787 -0.333294 0.530962 1.951129 0.410456 -0.591997 0.786375 -13.963716 -2.992512 0.000000 0.000000 0.000000 -0.971579 16.146793 -2.266052 -5.211293 15.276252 -15.870420 -1.643446 -84.581763 6.752672 0.000000 0.000000 0.000000 7.805804 -9.560049 4.371574 7.556792 -7.627823 8.528663 -11.217058 -77.630615 -47.758581 0.000000 0.000000 0.000000 10.755237 -6.174066 -9.705249 9.262153 40.590648 15.928076 25.199834 14.472194 11.042185 0.000000 0.000000 0.000000 -2.586025 -35.861462 11.689744 -1.429810 20.651631 2.631374 -0.571108 3.926826 -0.046124 0.000000 0.000000 0.000000 
-2220.808594 995.738770 1125.715942 1.830188 7.101987 -1.762490 3.003137 3.169605 -4.474373 2.373117 -0.599397 0.592314 2.085999 0.521982 -0.675721 0.759698 -14.174978 -2.746251 0.000000 0.000000 0.000000 -1.736197 15.317093 -1.930084 -4.915724 14.559652 -14.934585 -1.047769 -84.819659 6.839847 0.000000 0.000000 0.000000 8.161872 -9.656950 3.709535 7.461124 -8.109043 9.415710 -11.488165 -79.409908 -46.486921 0.000000 0.000000 0.000000 10.054899 -7.991796 -11.033804 8.544590 44.914223 16.664424 25.055957 14.982387 11.119200 0.000000 0.000000 0.000000 -2.569202 -37.135509 13.139941 -1.335773 24.569033 0.145955 -0.569049 2.705158 -0.124407 0.000000 0.000000 0.000000 
-2209.858643 996.294617 1122.548950 1.830311 6.920560 -1.802305 3.153837 3.572875 -4.772290 2.321426 -0.723583 0.725590 1.957421 0.598436 -0.768919 0.845404 -13.812884 -2.772370 0.000000 0.000000 0.000000 -1.781139 15.336753 -2.072170 -4.761979 14.427023 -14.104835 -0.837495 -85.724935 7.410425 0.000000 0.000000 0.000000 8.744554 -9.841221 3.106739 7.406641 -8.405886 10.022328 -11.661408 -81.087650 -45.087316 0.000000 0.000000 0.000000 8.805256 -9.592807 -12.143244 7.393927 49.030738 17.168160 22.981806 14.441285 10.393167 0.000000 0.000000 0.000000 -3.035611 -37.316672 13.776094 -1.325335 26.495776 -0.500134 -0.447583 1.896128 -0.125716 0.000000 0.000000 0.000000 
-2199.186279 997.072388 1120.149048 2.293106 6.817228 -1.944111 3.159880 3.540870 -4.819365 2.127274 -0.747259 0.934708 1.664495 0.663151 -0.868474 0.983564 -13.168864 -2.927038 0.000000 0.000000 0.000000 -1.457506 15.800747 -2.447243 -4.707832 14.577628 -13.275610 -0.822540 -87.079824 8.317445 0.000000 0.000000 0.000000 9.500515 -10.146694 2.515637 7.289138 -8.645944 10.385795 -11.837581 -82.582250 -43.470664 0.000000 0.000000 0.000000 7.283199 -11.194461 -13.193200 6.090296 52.948170 17.532612 19.815313 12.978740 9.123388 0.000000 0.000000 0.000000 -3.775343 -37.058651 13.930289 -1.332800 27.442128 -0.262948 -0.224447 1.010214 -0.085130 0.000000 0.000000 0.000000 
-2189.605225 997.014404 1118.348022 2.667982 6.884148 -2.006363 3.138381 3.396200 -4.951422 1.983938 -0.748839 1.112735 1.441799 0.683532 -0.954257 1.089688 -12.712844 -3.058609 0.000000 0.000000 0.000000 -1.155917 16.133991 -2.749519 -4.723181 14.639774 -12.577687 -0.814463 -88.502238 9.397685 0.000000 0.000000 0.000000 10.173196 -10.613413 2.063191 7.061206 -8.983794 10.461447 -12.002759 -83.184984 -41.813003 0.000000 0.000000 0.000000 5.960286 -13.075081 -14.148963 5.102220 56.277927 17.443554 16.724227 10.930308 7.706324 0.000000 0.000000 0.000000 -4.341158 -36.969876 14.044153 -1.317441 28.220276 -0.086800 -0.009543 0.252699 -0.041486 0.000000 0.000000 0.000000 
-2181.966064 995.577637 1117.222046 2.502682 7.369227 -2.015186 3.193794 3.052209 -5.218228 2.039742 -0.724553 1.187583 1.464384 0.615450 -1.007721 1.135822 -12.652186 -3.108815 0.000000 0.000000 0.000000 -0.998706 16.168552 -2.867529 -4.793373 14.521057 -12.059350 179.235536 -89.955252 -169.455105 0.000000 0.000000 0.000000 10.717458 -11.293003 1.740392 6.703368 -9.513328 10.184613 -12.174939 -82.674303 -40.150342 0.000000 0.000000 0.000000 4.897909 -15.810106 -14.887323 4.532982 58.983196 16.579979 13.854208 8.489734 6.210121 0.000000 0.000000 0.000000 -4.497385 -37.508394 14.474926 -1.226647 29.113743 -0.352137 0.170695 -0.275800 -0.005448 0.000000 0.000000 0.000000 
-2175.417969 993.305115 1116.696045 2.255087 8.025767 -1.946109 3.218122 2.586165 -5.565169 2.142445 -0.670509 1.223846 1.560532 0.498369 -1.042222 1.152074 -12.777149 -3.133163 0.000000 0.000000 0.000000 -0.862784 16.051989 -2.924078 -4.929767 14.322931 -11.662200 179.273397 -88.358324 -168.135128 0.000000 0.000000 0.000000 11.161494 -12.111102 1.536237 6.273832 -10.140474 9.638289 -12.322603 -81.388535 -38.459486 0.000000 0.000000 0.000000 3.859872 -18.910499 -15.439562 4.081325 61.028115 15.211648 11.041507 5.823438 4.637536 0.000000 0.000000 0.000000 -4.490934 -38.222619 14.873212 -1.117014 29.844606 -0.670724 0.332505 -0.696144 0.027601 0.000000 0.000000 0.000000 
-2168.225586 990.772949 1116.375000 2.714217 8.214415 -1.555279 3.065082 2.536186 -6.096424 2.017658 -0.651203 1.275548 1.433318 0.446844 -1.084758 1.144894 -12.940427 -3.152081 0.000000 0.000000 0.000000 -0.750122 15.662007 -2.946545 -5.147847 14.001495 -11.379949 179.307836 -87.250647 -166.487318 0.000000 0.000000 0.000000 11.343382 -12.897718 1.558617 5.876058 -10.766455 9.050228 -12.364150 -79.560296 -36.854445 0.000000 0.000000 0.000000 2.785395 -21.166978 -16.095194 3.473815 62.271898 13.799292 8.586332 3.389766 3.247805 0.000000 0.000000 0.000000 -4.621723 -38.365487 14.678990 -1.119399 30.360526 -0.852630 0.415192 -1.103819 0.037934 0.000000 0.000000 0.000000 
-2159.658691 988.306030 1116.067993 4.590398 7.508372 -0.567951 2.566549 3.325927 -6.975837 1.406683 -0.676334 1.372518 0.813461 0.525772 -1.154017 1.102650 -13.125295 -3.169504 0.000000 0.000000 0.000000 -0.698465 14.873737 -2.912837 -5.493777 13.506218 -11.327935 179.306425 -86.764967 -164.346748 0.000000 0.000000 0.000000 11.077667 -13.597814 2.004238 5.590332 -11.321135 8.420792 -12.235189 -77.287041 -35.387255 0.000000 0.000000 0.000000 1.480630 -21.887926 -17.308729 2.426436 62.756201 12.463019 6.407614 1.309922 2.095642 0.000000 0.000000 0.000000 -5.119635 -37.475145 13.354712 -1.349826 30.534948 -0.763303 0.355229 -1.543938 0.006562 0.000000 0.000000 0.000000 
-2150.447266 985.579407 1115.967041 7.106427 6.247473 0.651607 1.884777 4.583482 -8.011480 0.583202 -0.716072 1.497335 -0.019300 0.642250 -1.226263 1.036183 -13.334531 -3.184164 0.000000 0.000000 0.000000 -0.692504 13.806382 -2.829101 -5.936597 12.877282 -11.408308 179.271851 -86.786891 -161.829234 0.000000 0.000000 0.000000 10.521399 -14.261517 2.695679 5.344897 -11.877928 7.779017 -11.998301 -74.499537 -33.976996 0.000000 0.000000 0.000000 0.094761 -21.709482 -18.773875 1.177098 62.519411 11.070914 4.406925 -0.455462 1.141058 0.000000 0.000000 0.000000 -5.703397 -35.989929 11.489020 -1.730181 30.497840 -0.530890 0.174553 -1.974969 -0.065528 0.000000 0.000000 0.000000 
-2141.044434 982.197449 1116.249023 8.829149 5.092436 1.462531 1.397688 5.486536 -8.770867 0.086301 -0.739824 1.607552 -0.513057 0.707841 -1.284450 0.986294 -13.465112 -3.211516 0.000000 0.000000 0.000000 -0.655599 12.715640 -2.718707 -6.376413 12.213259 -11.347349 179.252930 -87.490931 -159.207294 0.000000 0.000000 0.000000 10.034369 -14.898654 3.151366 5.000189 -12.568674 7.393091 -11.786700 -71.118168 -32.553397 0.000000 0.000000 0.000000 -0.877792 -21.548811 -19.683413 0.257958 61.613846 9.688282 2.815209 -1.911881 0.428298 0.000000 0.000000 0.000000 -5.958555 -34.596588 10.225794 -2.048920 30.583983 -0.376024 -0.003006 -2.361146 -0.142861 0.000000 0.000000 0.000000 
-2131.608154 978.016052 1117.109985 9.035372 4.334894 1.630127 1.353741 5.636667 -9.057620 0.194957 -0.750033 1.671571 -0.379532 0.715508 -1.337273 0.970924 -13.482065 -3.269166 0.000000 0.000000 0.000000 -0.556313 11.663314 -2.530821 -6.829116 11.542146 -11.208364 179.221317 -89.143729 -156.305816 0.000000 0.000000 0.000000 9.749173 -15.557201 3.129922 4.452176 -13.495365 7.344125 -11.663470 -66.805527 -31.051755 0.000000 0.000000 0.000000 -1.165249 -21.746822 -19.541107 -0.104676 59.976744 8.175851 1.638398 -2.933831 -0.049449 0.000000 0.000000 0.000000 -5.680852 -33.487493 10.065005 -2.144425 30.907091 -0.383266 -0.059934 -2.727667 -0.185953 0.000000 0.000000 0.000000 
-2121.980225 973.180298 1118.354004 8.488793 3.764373 1.474139 1.543523 5.372773 -9.056345 0.619033 -0.747693 1.692083 0.085231 0.684271 -1.383372 0.972640 -13.423696 -3.338714 0.000000 0.000000 0.000000 -0.450078 10.593657 -2.241090 -7.265780 10.823343 -11.023363 -0.813721 -88.412092 26.694328 0.000000 0.000000 0.000000 9.545704 -16.231451 2.810789 3.779751 -14.564053 7.545876 -11.574145 -61.791353 -29.520311 0.000000 0.000000 0.000000 -1.039363 -21.923204 -18.781558 -0.187184 57.684738 6.633059 0.858787 -3.682994 -0.362831 0.000000 0.000000 0.000000 -5.120872 -32.492479 10.483562 -2.129366 31.336612 -0.480329 -0.069874 -3.026053 -0.213112 0.000000 0.000000 0.000000 
